<svg xmlns="http://www.w3.org/2000/svg" xmlns:xlink="http://www.w3.org/1999/xlink" width="1024" zoomAndPan="magnify" viewBox="0 0 768 767.999994" height="1024" preserveAspectRatio="xMidYMid meet" version="1.0"><path fill="#2c93e2" d="M 384 768 C 172.238281 768 0 595.761719 0 384 C 0 172.238281 172.238281 0 384 0 C 595.761719 0 768 172.238281 768 384 C 768 595.761719 595.761719 768 384 768 Z M 384 25.550781 C 186.367188 25.550781 25.546875 186.367188 25.546875 384 C 25.546875 581.632812 186.316406 742.453125 384 742.453125 C 581.632812 742.453125 742.449219 581.683594 742.449219 384 C 742.449219 186.316406 581.632812 25.550781 384 25.550781 Z M 384 25.550781 " fill-opacity="1" fill-rule="nonzero"/><path fill="#2c93e2" d="M 654.132812 310.679688 C 637.847656 161.484375 480.152344 138.855469 425.011719 191.179688 C 369.816406 243.507812 401.664062 312.832031 401.664062 312.832031 C 388.914062 203.929688 516.914062 218.777344 516.914062 322.714844 C 516.914062 426.648438 369.101562 463.460938 369.101562 463.460938 C 409.445312 357.375 310.066406 326.605469 272.945312 352.050781 C 243.355469 372.328125 253.847656 411.441406 253.847656 411.441406 C 253.847656 411.441406 256.769531 374.578125 292.8125 374.578125 C 328.859375 374.578125 338.433594 417.28125 316.46875 457.0625 C 294.449219 496.84375 237.464844 526.027344 126.617188 529.203125 C 126.617188 529.203125 227.738281 570.214844 407.347656 493.824219 C 586.957031 417.484375 541.695312 285.953125 541.695312 285.953125 C 541.695312 285.953125 522.085938 222.875 461.261719 213.300781 C 461.261719 213.300781 553.984375 211.457031 578.457031 291.585938 C 602.367188 369.714844 568.421875 558.285156 126.566406 583.628906 C 519.78125 665.703125 670.363281 459.929688 654.132812 310.679688 Z M 654.132812 310.679688 " fill-opacity="1" fill-rule="nonzero"/></svg>